<svg width="33" height="30" viewBox="0 0 33 30" fill="none" xmlns="http://www.w3.org/2000/svg">
<path d="M22.0539 0L27.352 9.5012H33V12.9177H31.0744L29.8254 28.4336C29.7911 28.8604 29.6031 29.2584 29.2987 29.5485C28.9943 29.8386 28.5957 29.9998 28.182 30H4.818C4.40426 29.9998 4.0057 29.8386 3.70132 29.5485C3.39693 29.2584 3.20894 28.8604 3.1746 28.4336L1.9239 12.9177H0V9.5012H5.6463L10.9461 0L13.8039 1.70823L9.4578 9.5012H23.5406L19.1961 1.70823L22.0539 0ZM27.7629 12.9177H5.23545L6.336 26.5835H26.6623L27.7629 12.9177ZM18.15 16.3341V23.1671H14.85V16.3341H18.15ZM11.55 16.3341V23.1671H8.25V16.3341H11.55ZM24.75 16.3341V23.1671H21.45V16.3341H24.75Z" fill="#5E2802"/>
</svg>
