<svg width="35" height="30" viewBox="0 0 35 30" fill="none" xmlns="http://www.w3.org/2000/svg">
<path d="M18.5938 11.7857C19.5169 11.7857 20.4312 11.7943 21.3675 12.1243C22.2709 12.4414 23.2706 13.0907 24.2463 14.5243C24.326 14.6413 24.4284 14.7419 24.5478 14.8202C24.6672 14.8984 24.8011 14.9529 24.942 14.9805C25.0829 15.008 25.2279 15.0081 25.3688 14.9808C25.5097 14.9534 25.6438 14.8992 25.7633 14.8211C25.8828 14.743 25.9854 14.6426 26.0653 14.5257C26.1452 14.4087 26.2008 14.2775 26.229 14.1395C26.2571 14.0015 26.2572 13.8594 26.2293 13.7214C26.2014 13.5834 26.146 13.4521 26.0662 13.335C24.8522 11.5521 23.485 10.5921 22.1069 10.1079C20.7922 9.64286 19.5344 9.64286 18.6375 9.64286H18.5938C18.3037 9.64286 18.0255 9.75574 17.8204 9.95667C17.6152 10.1576 17.5 10.4301 17.5 10.7143C17.5 10.9984 17.6152 11.271 17.8204 11.4719C18.0255 11.6728 18.3037 11.7857 18.5938 11.7857ZM13.125 4.28571V5.97857C6.80094 7.82143 2.1875 13.5621 2.1875 20.3571C2.1875 20.6413 2.30273 20.9138 2.50785 21.1148C2.71297 21.3157 2.99117 21.4286 3.28125 21.4286H31.7188C32.0088 21.4286 32.287 21.3157 32.4921 21.1148C32.6973 20.9138 32.8125 20.6413 32.8125 20.3571C32.8123 17.1265 31.7478 13.9821 29.7772 11.3916C27.8066 8.80102 25.0352 6.90261 21.875 5.97857V4.28571C21.875 3.14907 21.4141 2.05898 20.5936 1.25526C19.7731 0.451529 18.6603 0 17.5 0C16.3397 0 15.2269 0.451529 14.4064 1.25526C13.5859 2.05898 13.125 3.14907 13.125 4.28571ZM17.5 2.14286C18.0802 2.14286 18.6366 2.36862 19.0468 2.77049C19.457 3.17235 19.6875 3.71739 19.6875 4.28571V5.50714C18.2366 5.30377 16.7634 5.30377 15.3125 5.50714V4.28571C15.3125 3.71739 15.543 3.17235 15.9532 2.77049C16.3634 2.36862 16.9198 2.14286 17.5 2.14286ZM17.5 7.5C20.792 7.49953 23.9639 8.7109 26.3869 10.8939C28.8098 13.0769 30.3069 16.0722 30.5812 19.2857H4.41875C4.69308 16.0722 6.19016 13.0769 8.61313 10.8939C11.0361 8.7109 14.208 7.49953 17.5 7.5ZM3.28125 23.5714C2.41101 23.5714 1.57641 23.9101 0.961056 24.5129C0.345702 25.1157 0 25.9332 0 26.7857C0 27.6382 0.345702 28.4558 0.961056 29.0586C1.57641 29.6614 2.41101 30 3.28125 30H31.7188C32.589 30 33.4236 29.6614 34.0389 29.0586C34.6543 28.4558 35 27.6382 35 26.7857C35 25.9332 34.6543 25.1157 34.0389 24.5129C33.4236 23.9101 32.589 23.5714 31.7188 23.5714H3.28125ZM2.1875 26.7857C2.1875 26.5016 2.30273 26.229 2.50785 26.0281C2.71297 25.8272 2.99117 25.7143 3.28125 25.7143H31.7188C32.0088 25.7143 32.287 25.8272 32.4921 26.0281C32.6973 26.229 32.8125 26.5016 32.8125 26.7857C32.8125 27.0699 32.6973 27.3424 32.4921 27.5433C32.287 27.7443 32.0088 27.8571 31.7188 27.8571H3.28125C2.99117 27.8571 2.71297 27.7443 2.50785 27.5433C2.30273 27.3424 2.1875 27.0699 2.1875 26.7857Z" fill="#5E2802"/>
</svg>
