<svg width="24" height="24" viewBox="0 0 24 24" fill="none" xmlns="http://www.w3.org/2000/svg">
<path d="M12 24C10.36 24 8.81 23.6848 7.35 23.0544C5.89 22.4248 4.6152 21.5648 3.5256 20.4744C2.4352 19.3848 1.5752 18.11 0.9456 16.65C0.3152 15.19 0 13.64 0 12C0 10.34 0.3152 8.7852 0.9456 7.3356C1.5752 5.8852 2.4352 4.6152 3.5256 3.5256C4.6152 2.4352 5.89 1.5748 7.35 0.9444C8.81 0.3148 10.36 0 12 0C13.66 0 15.2148 0.3148 16.6644 0.9444C18.1148 1.5748 19.3848 2.4352 20.4744 3.5256C21.5648 4.6152 22.4248 5.8852 23.0544 7.3356C23.6848 8.7852 24 10.34 24 12C24 13.64 23.6848 15.19 23.0544 16.65C22.4248 18.11 21.5648 19.3848 20.4744 20.4744C19.3848 21.5648 18.1148 22.4248 16.6644 23.0544C15.2148 23.6848 13.66 24 12 24ZM12 21.54C12.52 20.82 12.97 20.07 13.35 19.29C13.73 18.51 14.04 17.68 14.28 16.8H9.72C9.96 17.68 10.27 18.51 10.65 19.29C11.03 20.07 11.48 20.82 12 21.54ZM8.88 21.06C8.52 20.4 8.2052 19.7148 7.9356 19.0044C7.6652 18.2948 7.44 17.56 7.26 16.8H3.72C4.3 17.8 5.0248 18.67 5.8944 19.41C6.7648 20.15 7.76 20.7 8.88 21.06ZM15.12 21.06C16.24 20.7 17.2348 20.15 18.1044 19.41C18.9748 18.67 19.7 17.8 20.28 16.8H16.74C16.56 17.56 16.3352 18.2948 16.0656 19.0044C15.7952 19.7148 15.48 20.4 15.12 21.06ZM2.7 14.4H6.78C6.72 14 6.6748 13.6048 6.6444 13.2144C6.6148 12.8248 6.6 12.42 6.6 12C6.6 11.58 6.6148 11.1752 6.6444 10.7856C6.6748 10.3952 6.72 10 6.78 9.6H2.7C2.6 10 2.5248 10.3952 2.4744 10.7856C2.4248 11.1752 2.4 11.58 2.4 12C2.4 12.42 2.4248 12.8248 2.4744 13.2144C2.5248 13.6048 2.6 14 2.7 14.4ZM9.18 14.4H14.82C14.88 14 14.9252 13.6048 14.9556 13.2144C14.9852 12.8248 15 12.42 15 12C15 11.58 14.9852 11.1752 14.9556 10.7856C14.9252 10.3952 14.88 10 14.82 9.6H9.18C9.12 10 9.0752 10.3952 9.0456 10.7856C9.0152 11.1752 9 11.58 9 12C9 12.42 9.0152 12.8248 9.0456 13.2144C9.0752 13.6048 9.12 14 9.18 14.4ZM17.22 14.4H21.3C21.4 14 21.4752 13.6048 21.5256 13.2144C21.5752 12.8248 21.6 12.42 21.6 12C21.6 11.58 21.5752 11.1752 21.5256 10.7856C21.4752 10.3952 21.4 10 21.3 9.6H17.22C17.28 10 17.3248 10.3952 17.3544 10.7856C17.3848 11.1752 17.4 11.58 17.4 12C17.4 12.42 17.3848 12.8248 17.3544 13.2144C17.3248 13.6048 17.28 14 17.22 14.4ZM16.74 7.2H20.28C19.7 6.2 18.9748 5.33 18.1044 4.59C17.2348 3.85 16.24 3.3 15.12 2.94C15.48 3.6 15.7952 4.2848 16.0656 4.9944C16.3352 5.7048 16.56 6.44 16.74 7.2ZM9.72 7.2H14.28C14.04 6.32 13.73 5.49 13.35 4.71C12.97 3.93 12.52 3.18 12 2.46C11.48 3.18 11.03 3.93 10.65 4.71C10.27 5.49 9.96 6.32 9.72 7.2ZM3.72 7.2H7.26C7.44 6.44 7.6652 5.7048 7.9356 4.9944C8.2052 4.2848 8.52 3.6 8.88 2.94C7.76 3.3 6.7648 3.85 5.8944 4.59C5.0248 5.33 4.3 6.2 3.72 7.2Z" fill="#5E2802"/>
</svg>
